<?xml version="1.0" encoding="utf-8"?>
<!-- Generator: Adobe Illustrator 23.0.2, SVG Export Plug-In . SVG Version: 6.00 Build 0)  -->
<svg version="1.1" id="Layer_1" xmlns="http://www.w3.org/2000/svg" xmlns:xlink="http://www.w3.org/1999/xlink" x="0px" y="0px"
	 viewBox="0 0 120 50" style="enable-background:new 0 0 120 50;" xml:space="preserve">
<style type="text/css">
	.st0{fill:#A2CE4D;}
	.st1{fill:#005CB9;}
</style>
<g>
	<g>
		<path class="st0" d="M95.56,1.02c-13.13,0-23.77,10.64-23.77,23.77c0,13.13,10.64,23.77,23.77,23.77
			c13.13,0,23.77-10.64,23.77-23.77C119.33,11.66,108.69,1.02,95.56,1.02z M110.13,40.96h-7.55v-1.59c-2.5,1.51-5.39,2.27-8.67,2.27
			c-1.55,0-2.98-0.23-4.31-0.67c-1.32-0.45-2.47-1.09-3.44-1.92c-0.97-0.83-1.74-1.82-2.3-2.98c-0.56-1.16-0.84-2.43-0.84-3.83
			c0-7.42,6.12-11.13,18.35-11.13h1.2c-0.02-0.84-0.08-1.58-0.2-2.21c-0.11-0.63-0.36-1.17-0.74-1.61
			c-0.38-0.44-0.94-0.77-1.66-0.99c-0.73-0.22-1.71-0.34-2.94-0.34c-3.64,0-5.53,1.61-5.68,4.84h-7.64
			c0.43-7.52,4.97-11.28,13.62-11.28c1.98,0,3.75,0.18,5.33,0.53c1.57,0.36,2.91,0.98,4.02,1.87c1.1,0.9,1.95,2.12,2.54,3.66
			c0.6,1.55,0.9,3.51,0.9,5.88V40.96z"/>
		<path class="st0" d="M90.72,31.98c0,1.05,0.43,1.84,1.27,2.39c0.85,0.55,1.97,0.83,3.37,0.83c0.71,0,1.41-0.07,2.1-0.21
			c0.69-0.14,1.35-0.35,1.99-0.62c0.63-0.27,1.21-0.61,1.75-1.02c0.53-0.41,0.99-0.89,1.38-1.43v-4.64h-2.21
			C93.94,27.28,90.72,28.85,90.72,31.98z"/>
	</g>
	<path class="st0" d="M24.39,1.02c-13.13,0-23.77,10.64-23.77,23.77c0,13.13,10.64,23.77,23.77,23.77
		c13.13,0,23.77-10.64,23.77-23.77C48.16,11.66,37.52,1.02,24.39,1.02z M31.51,43.86c-0.95,0.24-1.83,0.41-2.63,0.51
		c-0.8,0.1-1.56,0.15-2.27,0.15c-1.79,0-3.21-0.21-4.27-0.62c-1.06-0.42-1.86-1.03-2.4-1.85c-0.55-0.82-0.91-1.84-1.08-3.07
		c-0.17-1.23-0.25-2.65-0.25-4.27V20.07h-3.47v-6.3h3.47V6.81h7.64v6.96h4.59v6.3h-4.59v14.87c0,0.7,0.03,1.26,0.1,1.68
		c0.06,0.43,0.16,0.75,0.28,0.99c0.12,0.23,0.28,0.38,0.46,0.45c0.19,0.07,0.39,0.11,0.61,0.11c0.47,0,1.02-0.03,1.66-0.11
		c0.64-0.07,1.36-0.18,2.14-0.3V43.86z"/>
	<path class="st1" d="M58.09,1.02c-13.13,0-23.77,10.64-23.77,23.77c0,9.42,5.49,17.57,13.44,21.41V31c0.02-0.75,0.34-1.46,0.92-2.1
		c1.62-1.8,5.23-3.06,9.41-3.06c4.18,0,7.79,1.25,9.41,3.06c0.57,0.64,0.9,1.34,0.92,2.09v15.2c7.94-3.85,13.42-11.98,13.42-21.4
		C81.85,11.66,71.22,1.02,58.09,1.02z M58.1,23.86c-3.42,0-6.19-2.77-6.19-6.18c0-3.41,2.77-6.19,6.19-6.19
		c3.42,0,6.18,2.77,6.18,6.19C64.28,21.09,61.51,23.86,58.1,23.86z"/>
</g>
</svg>
